<svg width="36" height="37" viewBox="0 0 36 37" fill="none" xmlns="http://www.w3.org/2000/svg">
<rect y="0.5" width="36" height="36" rx="18" fill="#0077FF"/>
<path d="M22.3004 22.805L25 25.5M24.1472 18.0625C24.1472 19.803 23.4546 21.4722 22.2218 22.7029C20.989 23.9336 19.317 24.625 17.5736 24.625C15.8302 24.625 14.1581 23.9336 12.9254 22.7029C11.6926 21.4722 11 19.803 11 18.0625C11 16.322 11.6926 14.6528 12.9254 13.4221C14.1581 12.1914 15.8302 11.5 17.5736 11.5C19.317 11.5 20.989 12.1914 22.2218 13.4221C23.4546 14.6528 24.1472 16.322 24.1472 18.0625Z" stroke="white" stroke-width="1.5" stroke-linecap="round" stroke-linejoin="round"/>
</svg>
